<?xml version="1.0" encoding="UTF-8"?>
<svg width="130" height="130" version="1.1" viewBox="0 0 130 130" xmlns="http://www.w3.org/2000/svg">
 <g transform="translate(5 7.27)">
  <rect x="-5" y="-7.27" width="130" height="130" ry="13.6" fill="#e6da29" stroke-linecap="square" stroke-linejoin="round" stroke-width="27.6" style="paint-order:markers stroke fill"/>
  <g transform="skewX(-13.6)" fill="#d32734" stroke-width="2.36" aria-label="DD">
   <path d="m30.3 1.97h-16v65.2h17.7c15.6 0 31.7-6.51 31.7-32.9 0-27-16.2-32.3-33.4-32.3zm2.17 9.34c9.62 0 18.1 3.3 18.1 22.9 0 19.2-8.02 23.6-17.7 23.6h-6.13v-46.5z"/>
   <path d="m91.4 1.97h-16v65.2h17.7c15.6 0 31.7-6.51 31.7-32.9 0-27-16.2-32.3-33.4-32.3zm2.17 9.34c9.62 0 18.1 3.3 18.1 22.9 0 19.2-8.02 23.6-17.7 23.6h-6.13v-46.5z"/>
  </g>
  <g transform="matrix(.975 0 -.235 1.03 0 0)" fill="#1b1c33" stroke-width="2.3" aria-label="DD">
   <path d="m33.2-0.503h-15.6v63.5h17.3c15.2 0 30.9-6.35 30.9-32.1 0-26.3-15.8-31.4-32.6-31.4zm2.12 9.1c9.38 0 17.7 3.22 17.7 22.3 0 18.8-7.82 23-17.3 23h-5.98v-45.3z"/>
   <path d="m92.8-0.503h-15.6v63.5h17.3c15.2 0 30.9-6.35 30.9-32.1 0-26.3-15.8-31.4-32.6-31.4zm2.12 9.1c9.38 0 17.7 3.22 17.7 22.3 0 18.8-7.82 23-17.3 23h-5.98v-45.3z"/>
  </g>
  <g transform="matrix(.902 0 -.337 1.11 0 0)" fill="#1b1c33" stroke-width=".851" aria-label="Delivery">
   <path d="m42.5 72.8h-6.16v23.6h6.74c5.79 0 11.6-2.38 11.6-11.9 0-9.74-5.92-11.7-12.2-11.7zm0.783 3.68c3.41 0 6.16 1.26 6.16 8 0 6.61-2.62 8.21-6.06 8.21h-2.04v-16.2z"/>
   <path d="m73.6 86.9c0-5.75-3.03-9.16-8.14-9.16-5.28 0-8.21 4.22-8.21 9.67 0 5.65 3.03 9.47 8.82 9.47 2.83 0 5.07-1.02 6.84-2.45l-2.01-2.72c-1.57 1.09-2.86 1.57-4.39 1.57-2.32 0-3.95-1.02-4.29-4.49h11.3c0.034-0.511 0.102-1.26 0.102-1.87zm-4.8-1.16h-6.57c0.272-3.44 1.43-4.7 3.34-4.7 2.32 0 3.23 1.77 3.23 4.49z"/>
   <path d="m81.6 96.9c1.23 0 2.32-0.272 3.1-0.613l-0.987-3.44c-0.272 0.136-0.579 0.204-0.953 0.204-0.681 0-0.987-0.409-0.987-1.19v-21.3l-4.84 0.545v20.9c0 3.13 1.74 4.9 4.66 4.9z"/>
   <path d="m89.6 69c-1.74 0-2.93 1.23-2.93 2.83s1.19 2.83 2.93 2.83c1.74 0 2.96-1.23 2.96-2.83s-1.23-2.83-2.96-2.83zm2.45 9.3h-4.84v18h4.84z"/>
   <path d="m112 78.3h-4.97l-3.64 14.3-3.58-14.3h-5.24l5.89 18h5.75z"/>
   <path d="m129 86.9c0-5.75-3.03-9.16-8.14-9.16-5.28 0-8.21 4.22-8.21 9.67 0 5.65 3.03 9.47 8.82 9.47 2.83 0 5.07-1.02 6.84-2.45l-2.01-2.72c-1.57 1.09-2.86 1.57-4.39 1.57-2.32 0-3.95-1.02-4.29-4.49h11.3c0.034-0.511 0.102-1.26 0.102-1.87zm-4.8-1.16h-6.57c0.272-3.44 1.43-4.7 3.34-4.7 2.32 0 3.23 1.77 3.23 4.49z"/>
   <path d="m142 77.8c-2.11 0-3.85 1.5-4.7 4.02l-0.443-3.51h-4.19v18h4.84v-9.3c0.647-2.93 1.67-4.56 3.88-4.56 0.613 0 1.06 0.102 1.6 0.238l0.817-4.66c-0.613-0.17-1.16-0.272-1.8-0.272z"/>
   <path d="m162 78.3h-5.01l-3.81 14.9-3.61-14.9h-5.14l5.62 18h1.67c-0.987 2.45-2.21 3.54-5.79 4.02l0.511 3.47c5.52-0.375 8.34-3.06 9.74-7.46z"/>
  </g>
 </g>
</svg>
